<?xml version="1.0" encoding="utf-8"?>
<!-- Generator: Adobe Illustrator 26.5.0, SVG Export Plug-In . SVG Version: 6.00 Build 0)  -->
<svg version="1.1" id="Capa_1" xmlns="http://www.w3.org/2000/svg" xmlns:xlink="http://www.w3.org/1999/xlink" x="0px" y="0px"
	 viewBox="0 0 190.1 190.1" style="enable-background:new 0 0 190.1 190.1;" xml:space="preserve">
<style type="text/css">
	.st0{fill:#FCEA10;stroke:#1D1D1B;stroke-width:4;stroke-miterlimit:10;}
</style>
<path class="st0" d="M125.4,96.1c17.2,17.2,34.4,34.4,51.6,51.6c2.5,2.4,4,5.1,4.7,8.5c1.9,9.1,3.9,18.2,6,27.3
	c0.9,3.8,0.4,5.3-4,4.3c-9.7-2.3-19.5-4.4-29.3-6.4c-39.3-31.8-72.7-72.4-109.9-107.2c-3.7-3.7-7.4-3.6-11.2,0.2
	c-4.1,4.1-8.3,8.2-12.4,12.3c-2.3,2.4-4.6,2.3-6.7-0.4C-1.4,72.7-2.4,61.3,13.4,46.8c13.2-12.2,25.5-25.4,38.3-38
	c9.1-9.1,19.9-9.1,28.9,0.2c10,10.1,10.6,7.2,0,18c-2.1,2.1-4.2,4.2-6.4,6.4c-3.9,3.9-4,7.8-0.2,11.6C91.2,61.9,108.3,79,125.4,96.1
	L125.4,96.1z"/>
</svg>
